<?xml version="1.0" encoding="utf-8"?>
<!-- Generator: Adobe Illustrator 25.4.6, SVG Export Plug-In . SVG Version: 6.00 Build 0)  -->
<svg version="1.1" id="Layer_1" xmlns="http://www.w3.org/2000/svg" xmlns:xlink="http://www.w3.org/1999/xlink" x="0px" y="0px"
	 viewBox="0 0 513.3 536.7" style="enable-background:new 0 0 513.3 536.7;" xml:space="preserve">
<style type="text/css">
	.st0{fill:#6F6F6F;}
</style>
<g>
	<path class="st0" d="M466.7,326.7c-12.4,0-24.2,4.9-33,13.7c-8.8,8.8-13.7,20.6-13.7,33v70H93.3v-70c0-16.7-8.9-32.1-23.3-40.4
		s-32.2-8.3-46.7,0C8.9,341.2,0,356.7,0,373.3V490l0,0c0,12.4,4.9,24.2,13.7,33s20.6,13.7,33,13.7h420c12.4,0,24.2-4.9,33-13.7
		s13.7-20.6,13.7-33V373.3c0-12.4-4.9-24.2-13.7-33C490.9,331.6,479,326.7,466.7,326.7L466.7,326.7z"/>
	<path class="st0" d="M149.7,219.6l60.3-60.3V350c0,16.7,8.9,32.1,23.3,40.4c14.4,8.3,32.2,8.3,46.7,0c14.4-8.3,23.3-23.7,23.3-40.4
		V159.3l60.3,60.3c11.9,11.4,28.9,15.8,44.8,11.4c15.9-4.4,28.3-16.8,32.7-32.7c4.4-15.9,0-32.9-11.4-44.8l-140-140
		C280.9,4.9,269,0,256.7,0s-24.2,4.9-33,13.7l-140,140c-11.4,11.9-15.8,28.9-11.4,44.8s16.8,28.3,32.7,32.7
		C120.8,235.4,137.8,231.1,149.7,219.6L149.7,219.6z"/>
</g>
</svg>
