<svg id="chi-logo" xmlns="http://www.w3.org/2000/svg" width="150" height="50" viewBox="0 0 150 50">
  <defs>
    <style>
      .cls-1 {
        fill: #232323;
      }

      .cls-2 {
        fill: #f5f5f5;
        fill-rule: evenodd;
      }
    </style>
  </defs>
  <rect id="Background_Color" data-name="Background Color" class="cls-1" width="150" height="50"/>
  <path id="HOME_INSPECTION" data-name="HOME INSPECTION" class="cls-2" d="M35.707,33.118H35.14v1.844H32.9V33.118H32.329v4.135H32.9V35.372H35.14v1.881h0.567V33.118Zm7.065,1.216a1.967,1.967,0,0,0-.419-0.669,1.881,1.881,0,0,0-.65-0.437,2.332,2.332,0,0,0-1.676,0,1.882,1.882,0,0,0-.648.437,1.967,1.967,0,0,0-.419.669,2.527,2.527,0,0,0,0,1.705,1.95,1.95,0,0,0,.419.668,1.874,1.874,0,0,0,.648.434,2.353,2.353,0,0,0,1.676,0,1.873,1.873,0,0,0,.65-0.434,1.949,1.949,0,0,0,.419-0.668A2.525,2.525,0,0,0,42.771,34.334Zm-0.535,1.535a1.447,1.447,0,0,1-.3.511,1.272,1.272,0,0,1-.465.32,1.725,1.725,0,0,1-1.218,0,1.284,1.284,0,0,1-.467-0.32,1.432,1.432,0,0,1-.3-0.511,2.281,2.281,0,0,1,0-1.366,1.428,1.428,0,0,1,.3-0.512,1.3,1.3,0,0,1,.467-0.322,1.7,1.7,0,0,1,1.218,0,1.288,1.288,0,0,1,.465.322,1.443,1.443,0,0,1,.3.512A2.281,2.281,0,0,1,42.236,35.869Zm5.829-.111-1.439-2.545a0.166,0.166,0,0,0-.078-0.081,0.364,0.364,0,0,0-.116-0.014H46.016v4.135H46.51V34.215q0-.061,0-0.133t-0.013-.147l1.459,2.594a0.224,0.224,0,0,0,.2.13h0.081a0.224,0.224,0,0,0,.2-0.13l1.427-2.585q-0.006.072-.009,0.141t0,0.13v3.038H50.35V33.118H49.935a0.364,0.364,0,0,0-.116.014,0.166,0.166,0,0,0-.078.081l-1.41,2.542q-0.041.075-.073,0.149t-0.061.154q-0.029-.078-0.06-0.154a1.063,1.063,0,0,0-.071-0.146h0Zm5.626-2.64v4.135h2.567V36.8h-2V35.386h1.619V34.947H54.258V33.574h2V33.118H53.691Zm9.821,0H62.947v4.135h0.564V33.118Zm3.733,0H66.953v4.135h0.494V34.307q0-.058,0-0.127t-0.009-.141l2.41,3.113a0.282,0.282,0,0,0,.089.078,0.243,0.243,0,0,0,.112.023h0.285V33.118H69.837v2.928q0,0.066,0,.137t0.012,0.146l-2.413-3.116a0.289,0.289,0,0,0-.083-0.077,0.255,0.255,0,0,0-.112-0.019h0Zm8.7,0.381a1.47,1.47,0,0,0-.5-0.317,1.778,1.778,0,0,0-.637-0.11,1.484,1.484,0,0,0-.551.1,1.207,1.207,0,0,0-.4.254,1.151,1.151,0,0,0-.248,1.248,0.927,0.927,0,0,0,.225.31,1.19,1.19,0,0,0,.318.2,3.689,3.689,0,0,0,.366.137l0.366,0.115a1.583,1.583,0,0,1,.318.137,0.711,0.711,0,0,1,.225.2,0.515,0.515,0,0,1,.086.307,0.79,0.79,0,0,1-.058.309,0.671,0.671,0,0,1-.167.238,0.76,0.76,0,0,1-.266.154,1.082,1.082,0,0,1-.358.055,1.132,1.132,0,0,1-.408-0.065,1.5,1.5,0,0,1-.285-0.143,2.346,2.346,0,0,1-.2-0.143,0.232,0.232,0,0,0-.139-0.065,0.133,0.133,0,0,0-.074.022,0.213,0.213,0,0,0-.057.053l-0.163.266a1.729,1.729,0,0,0,.568.394,1.817,1.817,0,0,0,.737.146,1.626,1.626,0,0,0,.592-0.1,1.273,1.273,0,0,0,.439-0.277,1.175,1.175,0,0,0,.272-0.414A1.387,1.387,0,0,0,76.038,36a0.982,0.982,0,0,0-.086-0.433,0.917,0.917,0,0,0-.227-0.3,1.291,1.291,0,0,0-.32-0.2q-0.179-.079-0.366-0.143L74.673,34.8a1.739,1.739,0,0,1-.32-0.14,0.735,0.735,0,0,1-.227-0.195,0.464,0.464,0,0,1-.086-0.287,0.642,0.642,0,0,1,.049-0.252,0.563,0.563,0,0,1,.147-0.2,0.713,0.713,0,0,1,.243-0.137,1.018,1.018,0,0,1,.334-0.051,1.045,1.045,0,0,1,.342.049,1.35,1.35,0,0,1,.241.108,1.836,1.836,0,0,1,.166.108,0.2,0.2,0,0,0,.115.049,0.124,0.124,0,0,0,.076-0.022,0.225,0.225,0,0,0,.055-0.065Zm4.425,2.207a2.106,2.106,0,0,0,.666-0.1,1.388,1.388,0,0,0,.487-0.27,1.135,1.135,0,0,0,.3-0.413,1.335,1.335,0,0,0,.1-0.528,1.413,1.413,0,0,0-.094-0.528,1.041,1.041,0,0,0-.286-0.4,1.324,1.324,0,0,0-.484-0.258,2.327,2.327,0,0,0-.688-0.091H79.14v4.135H79.7V35.706H80.37ZM79.7,33.56H80.37a1.078,1.078,0,0,1,.743.222,0.79,0.79,0,0,1,.246.617,0.926,0.926,0,0,1-.064.349,0.737,0.737,0,0,1-.189.273,0.874,0.874,0,0,1-.31.177,1.306,1.306,0,0,1-.426.063H79.7v-1.7Zm5.259-.441v4.135h2.567V36.8h-2V35.386h1.619V34.947H85.528V33.574h2V33.118H84.961ZM93.5,36.442a1.84,1.84,0,0,1-.22.169,1.164,1.164,0,0,1-.236.117,1.378,1.378,0,0,1-.275.068,2.319,2.319,0,0,1-.334.022,1.471,1.471,0,0,1-.57-0.11,1.284,1.284,0,0,1-.458-0.319,1.517,1.517,0,0,1-.305-0.512A1.982,1.982,0,0,1,91,35.187a1.945,1.945,0,0,1,.112-0.678A1.475,1.475,0,0,1,91.42,34a1.372,1.372,0,0,1,.478-0.325,1.6,1.6,0,0,1,.612-0.114,1.76,1.76,0,0,1,.329.027,1.554,1.554,0,0,1,.25.068,1.2,1.2,0,0,1,.186.087q0.079,0.046.137,0.087l0.1,0.068a0.148,0.148,0,0,0,.08.027,0.129,0.129,0,0,0,.076-0.019,0.2,0.2,0,0,0,.047-0.048L93.9,33.6a1.906,1.906,0,0,0-1.384-.525,2.266,2.266,0,0,0-.85.154,1.919,1.919,0,0,0-.661.434,1.954,1.954,0,0,0-.429.669,2.328,2.328,0,0,0-.153.857,2.477,2.477,0,0,0,.142.857,1.952,1.952,0,0,0,.4.668,1.79,1.79,0,0,0,.625.433,2.084,2.084,0,0,0,.817.154,2.131,2.131,0,0,0,.879-0.164,1.783,1.783,0,0,0,.621-0.459l-0.221-.239A0.117,0.117,0,0,0,93.6,36.4a0.148,0.148,0,0,0-.1.043h0Zm3.044-3.324v0.47H97.9v3.664h0.564V33.589h1.346v-0.47H96.549Zm6.849,0h-0.564v4.135H103.4V33.118Zm7.164,1.216a1.974,1.974,0,0,0-.419-0.669,1.878,1.878,0,0,0-.65-0.437,2.332,2.332,0,0,0-1.676,0,1.879,1.879,0,0,0-.648.437,1.974,1.974,0,0,0-.419.669,2.53,2.53,0,0,0,0,1.705,1.956,1.956,0,0,0,.419.668,1.871,1.871,0,0,0,.648.434,2.353,2.353,0,0,0,1.676,0,1.87,1.87,0,0,0,.65-0.434,1.956,1.956,0,0,0,.419-0.668A2.53,2.53,0,0,0,110.562,34.334Zm-0.535,1.535a1.449,1.449,0,0,1-.3.511,1.273,1.273,0,0,1-.465.32,1.725,1.725,0,0,1-1.218,0,1.289,1.289,0,0,1-.467-0.32,1.436,1.436,0,0,1-.3-0.511,2.275,2.275,0,0,1,0-1.366,1.433,1.433,0,0,1,.3-0.512,1.306,1.306,0,0,1,.467-0.322,1.7,1.7,0,0,1,1.218,0,1.289,1.289,0,0,1,.465.322,1.446,1.446,0,0,1,.3.512A2.3,2.3,0,0,1,110.027,35.869Zm4.07-2.751h-0.291v4.135H114.3V34.307q0-.058,0-0.127c0-.046,0-0.093-0.008-0.141l2.41,3.113a0.281,0.281,0,0,0,.088.078,0.246,0.246,0,0,0,.112.023h0.285V33.118H116.69v2.928q0,0.066,0,.137c0,0.047.006,0.1,0.011,0.146l-2.413-3.116a0.29,0.29,0,0,0-.082-0.077,0.259,0.259,0,0,0-.112-0.019h0Z"/>
  <path id="CAMERON" class="cls-2" d="M20.3,23.61a0.632,0.632,0,0,0-.085.058,6.262,6.262,0,0,1-.757.6,4.4,4.4,0,0,1-.828.433,4.754,4.754,0,0,1-.975.265,7.387,7.387,0,0,1-1.206.088,5.139,5.139,0,0,1-2-.384,4.592,4.592,0,0,1-1.6-1.1A5.1,5.1,0,0,1,11.8,21.8a6.835,6.835,0,0,1-.383-2.368,6.622,6.622,0,0,1,.387-2.328,5.121,5.121,0,0,1,1.082-1.767,4.73,4.73,0,0,1,1.656-1.122,5.523,5.523,0,0,1,2.11-.393,6.02,6.02,0,0,1,1.113.093,5.508,5.508,0,0,1,.863.23,3.771,3.771,0,0,1,.645.3q0.272,0.164.463,0.3t0.316,0.23a0.379,0.379,0,0,0,.2.093,0.249,0.249,0,0,0,.223-0.106l0.276-.4a7.178,7.178,0,0,0-.855-0.654,5.022,5.022,0,0,0-.93-0.473A5.8,5.8,0,0,0,17.9,13.15a7.183,7.183,0,0,0-1.255-.1,6.564,6.564,0,0,0-2.506.464,5.639,5.639,0,0,0-1.949,1.308,5.905,5.905,0,0,0-1.264,2.019,7.214,7.214,0,0,0-.45,2.6,7.566,7.566,0,0,0,.436,2.633,5.912,5.912,0,0,0,1.215,2.019A5.328,5.328,0,0,0,14,25.377a6.168,6.168,0,0,0,2.4.455,7.5,7.5,0,0,0,1.438-.128,5.956,5.956,0,0,0,1.2-.362,5.317,5.317,0,0,0,1.01-.565,5.862,5.862,0,0,0,.855-0.746l-0.356-.38a0.208,0.208,0,0,0-.151-0.062A0.192,0.192,0,0,0,20.3,23.61ZM35.216,13.19H34.308l-5.154,12.5h0.694a0.333,0.333,0,0,0,.214-0.071,0.381,0.381,0,0,0,.125-0.168l1.478-3.631H37.85l1.486,3.631a0.439,0.439,0,0,0,.125.172,0.31,0.31,0,0,0,.2.066h0.7Zm-0.7,1.652q0.062-.159.125-0.349t0.125-.4q0.062,0.212.125,0.4t0.125,0.34l2.572,6.316H31.94Zm21.025,7.209-5.083-8.693a0.315,0.315,0,0,0-.147-0.141,0.62,0.62,0,0,0-.2-0.027H49.484v12.5h0.792V15.036a4.777,4.777,0,0,0-.027-0.495l5.092,8.746a0.4,0.4,0,0,0,.356.23H55.84a0.389,0.389,0,0,0,.356-0.23l4.958-8.737a4.7,4.7,0,0,0-.027.486V25.69h0.8V13.19H61.3a0.578,0.578,0,0,0-.2.027,0.321,0.321,0,0,0-.142.141l-4.949,8.684a2.357,2.357,0,0,0-.129.261q-0.058.137-.111,0.278a3.6,3.6,0,0,0-.231-0.53h0ZM72.788,13.19v12.5h7.548V24.939H73.7V19.727h5.519V18.994H73.7V13.941h6.632V13.19H72.788Zm20.464,6.846a1.367,1.367,0,0,1,.538.079,0.9,0.9,0,0,1,.325.274l4.032,5.071a0.639,0.639,0,0,0,.2.177,0.526,0.526,0,0,0,.245.053h0.792L95.05,20.284a1.44,1.44,0,0,0-.383-0.353,5.04,5.04,0,0,0,1.486-.375,3.821,3.821,0,0,0,1.126-.733A3.063,3.063,0,0,0,98,17.784a3.337,3.337,0,0,0,.249-1.307,2.913,2.913,0,0,0-1.077-2.451,5.278,5.278,0,0,0-3.258-.835H90.7v12.5H91.6V20.036h1.647ZM91.6,13.906H93.91a4.3,4.3,0,0,1,2.564.645,2.29,2.29,0,0,1,.881,1.979,2.774,2.774,0,0,1-.24,1.175,2.463,2.463,0,0,1-.7.892,3.24,3.24,0,0,1-1.122.57,5.222,5.222,0,0,1-1.5.2H91.6V13.906ZM119.2,16.816a5.868,5.868,0,0,0-1.228-2.019,5.422,5.422,0,0,0-1.9-1.294,6.367,6.367,0,0,0-2.448-.455,6.26,6.26,0,0,0-2.43.459,5.483,5.483,0,0,0-1.9,1.294,5.861,5.861,0,0,0-1.233,2.014,7.429,7.429,0,0,0-.441,2.619,7.456,7.456,0,0,0,.441,2.628,5.86,5.86,0,0,0,1.233,2.014,5.429,5.429,0,0,0,1.9,1.29,6.764,6.764,0,0,0,4.878,0,5.447,5.447,0,0,0,1.9-1.29,5.819,5.819,0,0,0,1.228-2.014,7.525,7.525,0,0,0,.436-2.628A7.5,7.5,0,0,0,119.2,16.816Zm-0.872,4.974a5.066,5.066,0,0,1-1.028,1.762,4.371,4.371,0,0,1-1.6,1.1,5.461,5.461,0,0,1-2.074.38,5.377,5.377,0,0,1-2.052-.38,4.454,4.454,0,0,1-1.6-1.1,5.047,5.047,0,0,1-1.042-1.762,7,7,0,0,1-.369-2.354,7.013,7.013,0,0,1,.369-2.35,5.044,5.044,0,0,1,1.042-1.767,4.5,4.5,0,0,1,1.6-1.109,5.323,5.323,0,0,1,2.052-.384,5.407,5.407,0,0,1,2.074.384,4.42,4.42,0,0,1,1.6,1.109,5.064,5.064,0,0,1,1.028,1.767,7.092,7.092,0,0,1,.365,2.35A7.08,7.08,0,0,1,118.327,21.79Zm11.838-8.6H129.72v12.5h0.792V15.169c0-.159-0.009-0.327-0.026-0.5l8.189,10.848a0.385,0.385,0,0,0,.329.177h0.436V13.19h-0.8V23.676a5.059,5.059,0,0,0,.027.512l-8.154-10.831a0.419,0.419,0,0,0-.151-0.137,0.507,0.507,0,0,0-.2-0.031h0Z"/>
</svg>
