<?xml version="1.0" encoding="utf-8"?>
<!-- Generator: Adobe Illustrator 25.4.6, SVG Export Plug-In . SVG Version: 6.00 Build 0)  -->
<svg version="1.1" id="Layer_1" xmlns="http://www.w3.org/2000/svg" xmlns:xlink="http://www.w3.org/1999/xlink" x="0px" y="0px"
	 viewBox="0 0 420 504" style="enable-background:new 0 0 420 504;" xml:space="preserve">
<style type="text/css">
	.st0{fill:#C9C9C9;}
</style>
<path class="st0" d="M203.9,248.2c-5,0-8.2,0.4-10.1,0.9v64.8c1.9,0.4,5,0.4,7.8,0.4c20.3,0.1,33.5-11,33.5-34.7
	C235.2,259.1,223.2,248.2,203.9,248.2L203.9,248.2z"/>
<path class="st0" d="M134.8,262.5c0-9.1-6.3-14.5-17.5-14.5c-4.6,0-7.6,0.4-9.3,0.9V278c1.9,0.4,4.3,0.6,7.5,0.6
	C127.5,278.6,134.8,272.6,134.8,262.5L134.8,262.5z"/>
<path class="st0" d="M290.6,15.8C278.4,3.6,269.7,0,252.5,0h-219C9.5,0,0,9.5,0,33.5v437C0,494.6,9.5,504,33.5,504h353
	c24.1,0,33.5-9.5,33.5-33.5v-303c0-17.3-3.6-25.9-15.8-38.1L290.6,15.8z M390.7,465.8c0,6.4-2.5,8.9-8.9,8.9H38.3
	c-6.4,0-8.9-2.5-8.9-8.9V357.4h361.4L390.7,465.8z M85.9,330.8v-97.7c6.9-1.2,16.6-2.1,30.3-2.1c13.8,0,23.7,2.6,30.3,7.9
	c6.3,5,10.6,13.2,10.6,22.9s-3.2,17.9-9.1,23.5c-7.6,7.2-19,10.4-32.2,10.4c-2.9,0-5.6-0.2-7.6-0.4v35.4L85.9,330.8z M171.3,330.3
	V233c8.2-1.3,18.9-2.1,30.3-2.1c18.8,0,31,3.4,40.6,10.6c10.3,7.6,16.8,19.8,16.8,37.3c0,18.9-6.9,32-16.5,40.1
	c-10.4,8.7-26.3,12.8-45.7,12.8C185.1,331.8,176.9,331.1,171.3,330.3L171.3,330.3z M331.6,272.7v18.2H296v39.8h-22.5v-99H334v18.4
	h-38v22.6H331.6L331.6,272.7z M390.7,205.4H29.3V38.2c0-6.4,2.5-8.9,8.9-8.9h223.1c3.2,0,4.5,1.3,4.5,4.5v86.9
	c0,24.1,9.5,33.5,33.5,33.5h86.9c3.2,0,4.5,1.3,4.5,4.5L390.7,205.4z"/>
</svg>
